<?xml version="1.0" encoding="UTF-8" standalone="no"?>
<!-- Created with Inkscape (http://www.inkscape.org/) -->

<svg
   xmlns:dc="http://purl.org/dc/elements/1.1/"
   xmlns:cc="http://creativecommons.org/ns#"
   xmlns:rdf="http://www.w3.org/1999/02/22-rdf-syntax-ns#"
   xmlns:svg="http://www.w3.org/2000/svg"
   xmlns="http://www.w3.org/2000/svg"
   xmlns:sodipodi="http://sodipodi.sourceforge.net/DTD/sodipodi-0.dtd"
   xmlns:inkscape="http://www.inkscape.org/namespaces/inkscape"
   width="115.51053mm"
   height="164.6382mm"
   viewBox="0 0 409.28927 583.36369"
   id="svg2"
   version="1.1"
   inkscape:version="0.91 r13725"
   sodipodi:docname="leaf-sprite-move-right.svg"
   inkscape:export-filename="C:\Users\Kyle\Documents\GitHub\Recycling-Run\assets\leaf-move-right.png"
   inkscape:export-xdpi="11.716913"
   inkscape:export-ydpi="11.716913">
  <defs
     id="defs4" />
  <sodipodi:namedview
     id="base"
     pagecolor="#ffffff"
     bordercolor="#666666"
     borderopacity="1.0"
     inkscape:pageopacity="0.0"
     inkscape:pageshadow="2"
     inkscape:zoom="0.35355339"
     inkscape:cx="-749.81788"
     inkscape:cy="412.49053"
     inkscape:document-units="px"
     inkscape:current-layer="layer1"
     showgrid="false"
     inkscape:window-width="1536"
     inkscape:window-height="801"
     inkscape:window-x="-8"
     inkscape:window-y="-8"
     inkscape:window-maximized="1"
     fit-margin-top="0"
     fit-margin-left="0"
     fit-margin-right="0"
     fit-margin-bottom="0" />
  <metadata
     id="metadata7">
    <rdf:RDF>
      <cc:Work
         rdf:about="">
        <dc:format>image/svg+xml</dc:format>
        <dc:type
           rdf:resource="http://purl.org/dc/dcmitype/StillImage" />
        <dc:title></dc:title>
      </cc:Work>
    </rdf:RDF>
  </metadata>
  <g
     inkscape:label="Layer 1"
     inkscape:groupmode="layer"
     id="layer1"
     transform="translate(-99.54625,-258.86075)">
    <path
       style="fill:#008000;fill-rule:evenodd;stroke:none;stroke-width:1px;stroke-linecap:butt;stroke-linejoin:miter;stroke-opacity:1"
       d="m 316.88281,258.86133 c -0.0979,-0.007 -0.19751,0.0491 -0.31836,0.18359 -3.31282,3.50026 -44.65079,47.38138 -59.98633,74.08789 -16.13157,28.09281 -30.24355,57.47738 -41.41601,87.88477 -6.90547,18.79419 -13.32402,40.17317 -18.18164,59.59765 -4.45939,17.83206 -7.74128,35.20755 -9.0918,53.53907 -1.63281,22.16329 1.59219,45.91017 6.06055,67.67968 3.09364,15.07196 10.70185,28.98116 18.18359,42.42579 7.99449,14.36603 16.98342,28.46432 28.28321,40.40625 16.48188,17.4185 36.95308,30.6524 56.56836,44.44726 11.76891,8.27675 23.30878,10.28616 39.78515,0.01 20.34712,-12.6906 40.08648,-27.02877 56.56836,-44.44727 11.29979,-11.94193 20.29067,-26.04022 28.28516,-40.40625 7.48174,-13.44463 15.088,-27.35382 18.18164,-42.42578 4.46836,-21.76951 7.69531,-45.5164 6.0625,-67.67969 -1.35052,-18.33152 -4.63241,-35.707 -9.0918,-53.53906 -4.85762,-19.42448 -11.27812,-40.80347 -18.18359,-59.59766 -11.17246,-30.40739 -25.28445,-59.79196 -41.41602,-87.88476 -15.33552,-26.70652 -56.67351,-70.58763 -59.98633,-74.08789 -0.11256,-0.1168 -0.20874,-0.18644 -0.30664,-0.19336 z m -42.82617,156.33789 a 26.162951,26.162951 0 0 1 26.16211,26.16211 26.162951,26.162951 0 0 1 -19.10352,25.1914 11.313708,11.313708 0 0 0 4.25586,-8.84179 11.313708,11.313708 0 0 0 -11.31445,-11.3125 11.313708,11.313708 0 0 0 -11.31445,11.3125 11.313708,11.313708 0 0 0 4.23437,8.8125 26.162951,26.162951 0 0 1 -19.08203,-25.16211 26.162951,26.162951 0 0 1 26.16211,-26.16211 z m 85.64258,0 a 26.162951,26.162951 0 0 1 26.16211,26.16211 26.162951,26.162951 0 0 1 -19.13086,25.19922 11.313708,11.313708 0 0 0 4.2832,-8.84961 11.313708,11.313708 0 0 0 -11.31445,-11.3125 11.313708,11.313708 0 0 0 -11.31445,11.3125 11.313708,11.313708 0 0 0 4.21875,8.80859 26.162951,26.162951 0 0 1 -19.06641,-25.1582 26.162951,26.162951 0 0 1 26.16211,-26.16211 z m 19.67187,147.16211 c 0,0 -36.85455,42.48845 -62,43 -24.8701,0.50595 -63,-40 -63,-40 41.66667,13.79583 83.33333,20.21624 125,-3 z"
       id="path4138"
       inkscape:connector-curvature="0" />
    <path
       style="fill:#008000;fill-rule:evenodd;stroke:none;stroke-width:1px;stroke-linecap:butt;stroke-linejoin:miter;stroke-opacity:1"
       d="m 312.39906,719.49153 c 0,0 -20.85404,91.94245 -102.87885,116.87249 -29.29573,8.90394 -109.97396,2.85055 -109.97396,2.85055 l 17.73772,-15.67802 c 0,0 52.06483,4.31377 70.95096,-1.42527 76.64905,-23.29181 92.23621,-109.74612 92.23621,-109.74612 z"
       id="path4238"
       inkscape:connector-curvature="0"
       sodipodi:nodetypes="csccscc" />
    <path
       style="fill:#008000;fill-rule:evenodd;stroke:none;stroke-width:1px;stroke-linecap:butt;stroke-linejoin:miter;stroke-opacity:1"
       d="m 334.97765,721.43623 c 0,0 8.31337,91.22894 41.01219,115.96551 11.67861,8.83484 43.84062,2.82843 43.84062,2.82843 l -7.07106,-15.55635 c 0,0 -20.75541,4.28029 -28.28428,-1.41421 -30.5558,-23.11106 -36.76955,-108.89445 -36.76955,-108.89445 z"
       id="path4238-5"
       inkscape:connector-curvature="0"
       sodipodi:nodetypes="csccscc" />
    <path
       style="fill:#008000;fill-rule:evenodd;stroke:none;stroke-width:1px;stroke-linecap:butt;stroke-linejoin:miter;stroke-opacity:1"
       d="m 207.88939,497.99048 c 0,0 -72.41751,69.6372 -83.4386,115.96552 -4.1971,17.64294 8.48528,53.74011 8.48528,53.74011 l 18.38478,-2.82843 c 0,0 -14.47606,-37.04511 -9.89949,-55.15433 8.71257,-34.47514 66.46803,-83.4386 66.46803,-83.4386 z"
       id="path4255"
       inkscape:connector-curvature="0"
       sodipodi:nodetypes="csccscc" />
    <path
       style="fill:#008000;fill-rule:evenodd;stroke:none;stroke-width:1px;stroke-linecap:butt;stroke-linejoin:miter;stroke-opacity:1"
       d="m 424.5454,497.99048 c 0,0 72.41751,69.6372 83.4386,115.96552 4.1971,17.64294 -8.48528,53.74011 -8.48528,53.74011 l -18.38478,-2.82843 c 0,0 14.47606,-37.04511 9.89949,-55.15433 -8.71257,-34.47514 -66.46803,-83.4386 -66.46803,-83.4386 z"
       id="path4255-8"
       inkscape:connector-curvature="0"
       sodipodi:nodetypes="csccscc" />
    <path
       style="fill:none;fill-rule:evenodd;stroke:#005e00;stroke-width:0.99582201px;stroke-linecap:butt;stroke-linejoin:miter;stroke-opacity:1"
       d="m 315.93229,577.76652 0,-288.49956"
       id="path4284"
       inkscape:connector-curvature="0"
       sodipodi:nodetypes="cc" />
    <path
       style="fill:none;fill-rule:evenodd;stroke:#005e00;stroke-width:0.66898829px;stroke-linecap:butt;stroke-linejoin:miter;stroke-opacity:1"
       d="m 315.93229,735.62812 0,-130.20231"
       id="path4284-5"
       inkscape:connector-curvature="0"
       sodipodi:nodetypes="cc" />
  </g>
</svg>
